<?xml version="1.0" standalone="no"?>
<!DOCTYPE svg PUBLIC "-//W3C//DTD SVG 20010904//EN"
 "http://www.w3.org/TR/2001/REC-SVG-20010904/DTD/svg10.dtd">
<svg version="1.0" xmlns="http://www.w3.org/2000/svg"
 width="640.000000pt" height="640.000000pt" viewBox="0 0 640.000000 640.000000"
 preserveAspectRatio="xMidYMid meet">
<metadata>
Created by potrace 1.11, written by Peter Selinger 2001-2013
</metadata>
<g transform="translate(0.000000,640.000000) scale(0.100000,-0.100000)"
fill="#000000" stroke="none">
<path d="M375 5359 c-4 -6 -5 -12 -2 -15 2 -3 7 2 10 11 7 17 1 20 -8 4z"/>
<path d="M3770 5239 c0 -5 5 -7 10 -4 6 3 10 8 10 11 0 2 -4 4 -10 4 -5 0 -10
-5 -10 -11z"/>
<path d="M3740 5215 c-8 -9 -8 -15 -2 -15 12 0 26 19 19 26 -2 2 -10 -2 -17
-11z"/>
<path d="M284 5191 c11 -11 23 -21 28 -21 14 0 -1 19 -25 31 -22 12 -22 12 -3
-10z"/>
<path d="M3679 5160 c-13 -10 -19 -19 -13 -20 7 0 22 9 35 20 13 10 19 19 13
20 -7 0 -22 -9 -35 -20z"/>
<path d="M2385 5139 c-4 -6 -5 -12 -2 -15 2 -3 7 2 10 11 7 17 1 20 -8 4z"/>
<path d="M350 5136 c0 -2 7 -7 16 -10 8 -3 12 -2 9 4 -6 10 -25 14 -25 6z"/>
<path d="M395 5110 c3 -5 12 -10 18 -10 7 0 30 -9 52 -20 22 -11 46 -20 55
-20 8 0 -14 14 -48 30 -67 31 -87 37 -77 20z"/>
<path d="M3599 5093 c-13 -16 -12 -17 4 -4 16 13 21 21 13 21 -2 0 -10 -8 -17
-17z"/>
<path d="M2776 5074 c-15 -14 -26 -27 -24 -29 2 -3 17 9 33 25 35 36 30 39 -9
4z"/>
<path d="M3528 5042 c-16 -10 -28 -21 -28 -25 0 -5 14 1 30 13 17 12 30 23 30
26 0 5 0 5 -32 -14z"/>
<path d="M583 5043 c9 -2 23 -2 30 0 6 3 -1 5 -18 5 -16 0 -22 -2 -12 -5z"/>
<path d="M5330 5028 c-12 -22 -12 -22 6 -6 10 10 15 20 12 24 -4 3 -12 -5 -18
-18z"/>
<path d="M648 5033 c6 -2 18 -2 25 0 6 3 1 5 -13 5 -14 0 -19 -2 -12 -5z"/>
<path d="M870 5030 c-9 -6 -10 -10 -3 -10 6 0 15 5 18 10 8 12 4 12 -15 0z"/>
<path d="M1375 5030 c-3 -5 -2 -10 4 -10 5 0 13 5 16 10 3 6 2 10 -4 10 -5 0
-13 -4 -16 -10z"/>
<path d="M703 5023 c9 -2 23 -2 30 0 6 3 -1 5 -18 5 -16 0 -22 -2 -12 -5z"/>
<path d="M2710 5009 c0 -5 5 -7 10 -4 6 3 10 8 10 11 0 2 -4 4 -10 4 -5 0 -10
-5 -10 -11z"/>
<path d="M3116 4992 c-21 -14 -34 -28 -28 -30 12 -4 82 39 82 51 0 12 -13 7
-54 -21z"/>
<path d="M3465 5000 c-3 -5 -1 -10 4 -10 6 0 11 5 11 10 0 6 -2 10 -4 10 -3 0
-8 -4 -11 -10z"/>
<path d="M3847 4990 c-3 -11 -1 -20 4 -20 5 0 9 9 9 20 0 11 -2 20 -4 20 -2 0
-6 -9 -9 -20z"/>
<path d="M3405 4969 c-16 -10 -26 -19 -22 -19 11 0 67 29 67 35 0 9 -15 4 -45
-16z"/>
<path d="M1280 4965 c-14 -8 -20 -14 -14 -15 5 0 19 7 30 15 24 18 16 19 -16
0z"/>
<path d="M2990 4930 c-9 -6 -10 -10 -3 -10 6 0 15 5 18 10 8 12 4 12 -15 0z"/>
<path d="M2573 4901 c-13 -11 -23 -22 -23 -25 0 -10 39 18 44 31 7 17 6 16
-21 -6z"/>
<path d="M1155 4890 c-3 -5 -2 -10 4 -10 5 0 13 5 16 10 3 6 2 10 -4 10 -5 0
-13 -4 -16 -10z"/>
<path d="M3255 4880 c-3 -5 -2 -10 4 -10 5 0 13 5 16 10 3 6 2 10 -4 10 -5 0
-13 -4 -16 -10z"/>
<path d="M1110 4870 c-8 -5 -10 -10 -5 -10 6 0 17 5 25 10 8 5 11 10 5 10 -5
0 -17 -5 -25 -10z"/>
<path d="M5613 4858 c-18 -11 -33 -25 -33 -30 0 -6 8 -4 18 5 10 10 22 17 26
17 4 0 14 7 22 15 21 21 6 17 -33 -7z"/>
<path d="M3196 4843 c-6 -14 -5 -15 5 -6 7 7 10 15 7 18 -3 3 -9 -2 -12 -12z"/>
<path d="M2495 4840 c-3 -6 1 -7 9 -4 18 7 21 14 7 14 -6 0 -13 -4 -16 -10z"/>
<path d="M5676 4806 c-29 -39 -33 -64 -11 -73 20 -7 34 6 17 16 -17 10 -5 39
27 68 20 17 22 22 10 23 -9 0 -28 -15 -43 -34z"/>
<path d="M968 4810 c-60 -25 -184 -40 -218 -28 -14 5 -31 16 -37 25 -12 15
-13 15 -13 1 0 -9 8 -24 17 -34 30 -30 217 -5 300 40 40 21 7 19 -49 -4z"/>
<path d="M2443 4805 c-17 -14 -55 -40 -84 -60 -29 -19 -50 -35 -46 -35 15 0
72 33 103 59 17 14 39 31 50 37 10 7 17 14 14 17 -3 3 -20 -5 -37 -18z"/>
<path d="M3135 4820 c-3 -5 -2 -10 4 -10 5 0 13 5 16 10 3 6 2 10 -4 10 -5 0
-13 -4 -16 -10z"/>
<path d="M4060 4810 c-6 -11 -8 -20 -6 -20 3 0 10 9 16 20 6 11 8 20 6 20 -3
0 -10 -9 -16 -20z"/>
<path d="M2150 4798 c-12 -22 -12 -22 6 -6 10 10 15 20 12 24 -4 3 -12 -5 -18
-18z"/>
<path d="M3063 4781 c-60 -30 -72 -49 -15 -24 20 9 50 21 65 28 18 8 24 14 15
17 -7 3 -36 -6 -65 -21z"/>
<path d="M5552 4780 c-7 -11 -12 -25 -12 -32 0 -7 7 0 15 16 18 33 15 45 -3
16z"/>
<path d="M5119 4709 c-36 -38 -62 -69 -56 -69 11 0 102 95 118 123 14 26 10
22 -62 -54z"/>
<path d="M5991 4743 c7 -12 15 -20 18 -17 3 2 -3 12 -13 22 -17 16 -18 16 -5
-5z"/>
<path d="M2953 4735 c-18 -8 -33 -16 -33 -19 0 -5 60 11 68 19 13 12 -5 12
-35 0z"/>
<path d="M4407 4723 c-4 -3 -7 -13 -7 -22 1 -13 3 -13 11 2 11 19 8 33 -4 20z"/>
<path d="M2630 4705 c0 -8 5 -15 10 -15 6 0 10 7 10 15 0 8 -4 15 -10 15 -5 0
-10 -7 -10 -15z"/>
<path d="M2695 4680 c5 -9 1 -10 -14 -5 -16 5 -20 3 -15 -9 3 -9 11 -16 18
-16 25 0 56 13 56 23 0 6 -3 7 -6 4 -4 -3 -16 -2 -27 4 -15 8 -18 8 -12 -1z"/>
<path d="M3260 4670 c0 -13 20 -13 40 0 12 8 9 10 -12 10 -16 0 -28 -4 -28
-10z"/>
<path d="M3407 4669 c8 -8 16 -8 30 0 16 9 14 10 -11 11 -22 0 -27 -3 -19 -11z"/>
<path d="M3220 4660 c-9 -6 -10 -10 -3 -10 6 0 15 5 18 10 8 12 4 12 -15 0z"/>
<path d="M3470 4658 c0 -4 9 -8 20 -8 11 0 20 4 20 8 0 4 -9 8 -20 8 -11 0
-20 -4 -20 -8z"/>
<path d="M6055 4640 c8 -16 15 -38 15 -49 0 -11 5 -23 10 -26 13 -8 13 -8 -5
53 -9 29 -20 52 -26 52 -5 0 -3 -13 6 -30z"/>
<path d="M1288 4614 c-52 -41 -65 -54 -55 -54 2 0 13 8 25 18 44 37 58 48 82
65 13 9 20 17 15 17 -6 0 -36 -21 -67 -46z"/>
<path d="M2163 4630 c-46 -28 -41 -35 7 -10 38 19 49 30 33 30 -5 0 -23 -9
-40 -20z"/>
<path d="M5276 4624 c-10 -37 -2 -39 11 -4 6 17 8 30 3 30 -4 0 -11 -12 -14
-26z"/>
<path d="M2695 4630 c-3 -5 -2 -10 4 -10 5 0 13 5 16 10 3 6 2 10 -4 10 -5 0
-13 -4 -16 -10z"/>
<path d="M3133 4630 c-34 -14 -28 -21 7 -9 17 6 30 13 30 15 0 6 -12 4 -37 -6z"/>
<path d="M870 4595 c-8 -9 -8 -15 -2 -15 12 0 26 19 19 26 -2 2 -10 -2 -17
-11z"/>
<path d="M3000 4595 c-14 -8 -19 -14 -10 -14 8 0 24 6 34 14 25 19 9 19 -24 0z"/>
<path d="M3053 4600 c3 -15 -94 -91 -125 -97 -15 -3 -25 -9 -23 -13 3 -5 -4
-12 -16 -15 -11 -4 -36 -22 -55 -41 l-35 -33 26 -7 c58 -15 -4 -61 -85 -63
-19 -1 -42 -6 -50 -12 -11 -7 3 -9 50 -5 36 3 59 3 53 0 -15 -7 -17 -34 -3
-34 5 0 14 9 20 20 6 11 15 18 21 15 5 -4 17 1 26 11 16 16 18 15 29 -17 11
-31 9 -36 -14 -55 l-26 -21 21 -12 c29 -15 34 -14 26 4 -3 9 3 25 13 36 14 15
15 22 6 28 -9 6 -9 15 4 39 8 18 20 32 25 32 5 0 9 4 9 10 0 5 -7 6 -17 3 -11
-4 -14 -3 -9 5 4 7 16 12 27 12 10 0 19 6 19 13 0 8 11 20 25 27 23 12 23 14
7 26 -16 12 -16 13 3 20 11 4 23 12 27 18 5 7 8 3 8 -8 0 -19 0 -19 21 0 l20
18 -20 8 c-23 8 -28 24 -8 25 6 1 27 4 45 8 37 9 43 -6 10 -24 -17 -9 -18 -10
-3 -5 11 4 28 6 38 6 15 -1 16 2 6 14 -15 18 -5 29 18 19 23 -11 65 -14 78 -6
6 3 28 7 50 8 22 1 59 8 83 14 53 15 57 34 5 24 -21 -5 -45 -7 -53 -7 -65 7
-141 0 -232 -22 -61 -14 -69 -4 -20 27 l27 16 -27 1 c-16 0 -27 -4 -25 -10z
m-68 -120 c-3 -5 -12 -10 -18 -10 -7 0 -6 4 3 10 19 12 23 12 15 0z m-84 -41
c-13 -11 -27 -17 -30 -13 -3 3 5 14 18 25 13 11 27 17 30 13 3 -3 -5 -14 -18
-25z"/>
<path d="M3441 4584 c0 -11 3 -14 6 -6 3 7 2 16 -1 19 -3 4 -6 -2 -5 -13z"/>
<path d="M4322 4552 c-32 -53 -92 -118 -132 -144 -14 -9 -20 -17 -14 -17 18
-1 80 52 116 100 47 63 70 100 65 105 -3 3 -18 -17 -35 -44z"/>
<path d="M836 4548 c-17 -24 -21 -48 -8 -48 4 0 12 16 18 35 13 41 11 43 -10
13z"/>
<path d="M2035 4560 c-13 -6 -15 -9 -5 -9 8 0 22 4 30 9 18 12 2 12 -25 0z"/>
<path d="M2857 4545 c-20 -14 -37 -31 -37 -37 0 -7 12 0 28 14 15 14 36 30 47
36 11 6 15 12 10 12 -6 0 -27 -11 -48 -25z"/>
<path d="M2245 4537 c-4 -10 -5 -21 -1 -24 10 -10 18 4 13 24 -4 17 -4 17 -12
0z"/>
<path d="M6084 4530 c14 -55 27 -162 22 -176 -3 -8 1 -14 10 -14 12 0 14 7 10
28 -3 15 -10 58 -15 96 -6 38 -15 74 -22 80 -9 8 -10 5 -5 -14z"/>
<path d="M1325 4529 c-4 -6 -5 -12 -2 -15 2 -3 7 2 10 11 7 17 1 20 -8 4z"/>
<path d="M1106 4508 c-42 -15 -61 -18 -64 -10 -2 8 -8 7 -19 -3 -21 -21 -83
-18 -118 5 -35 24 -45 25 -45 6 0 -46 116 -57 224 -20 38 12 74 28 80 34 13
13 13 13 -58 -12z"/>
<path d="M2278 4503 c6 -2 18 -2 25 0 6 3 1 5 -13 5 -14 0 -19 -2 -12 -5z"/>
<path d="M4150 4491 c-6 -12 -7 -21 -1 -21 10 0 24 30 17 37 -2 3 -9 -5 -16
-16z"/>
<path d="M3197 4480 c-11 -13 -29 -20 -54 -20 -28 0 -34 3 -23 10 9 6 10 10 3
10 -25 0 -43 -13 -43 -32 0 -15 5 -18 21 -13 19 6 19 5 7 -17 -7 -12 -14 -25
-16 -28 -2 -2 -8 2 -13 10 -9 13 -10 13 -7 0 3 -8 17 -21 33 -29 25 -12 30
-12 42 5 18 24 17 39 -2 24 -9 -7 -19 -10 -23 -6 -4 5 5 18 21 29 73 57 82 66
76 71 -3 3 -13 -3 -22 -14z"/>
<path d="M3330 4440 c0 -11 2 -20 4 -20 2 0 6 9 9 20 3 11 1 20 -4 20 -5 0 -9
-9 -9 -20z"/>
<path d="M4105 4407 c-11 -18 -23 -41 -28 -51 -7 -19 -7 -19 12 -2 11 10 19
21 18 25 0 3 5 17 12 29 20 36 8 35 -14 -1z"/>
<path d="M964 4405 c-9 -14 -14 -28 -11 -31 3 -3 13 8 22 25 19 37 12 41 -11
6z"/>
<path d="M1260 4410 c-6 -11 -8 -20 -6 -20 3 0 10 9 16 20 6 11 8 20 6 20 -3
0 -10 -9 -16 -20z"/>
<path d="M2775 4410 c-3 -5 -1 -10 4 -10 6 0 11 5 11 10 0 6 -2 10 -4 10 -3 0
-8 -4 -11 -10z"/>
<path d="M4509 4386 c-27 -32 -53 -76 -45 -76 7 0 79 100 75 104 -2 2 -16 -11
-30 -28z"/>
<path d="M6066 4397 c3 -10 9 -15 12 -12 3 3 0 11 -7 18 -10 9 -11 8 -5 -6z"/>
<path d="M5335 4389 c-4 -6 -5 -12 -2 -15 2 -3 7 2 10 11 7 17 1 20 -8 4z"/>
<path d="M1507 4370 c-3 -11 -1 -20 4 -20 5 0 9 9 9 20 0 11 -2 20 -4 20 -2 0
-6 -9 -9 -20z"/>
<path d="M1829 4373 c-13 -16 -12 -17 4 -4 16 13 21 21 13 21 -2 0 -10 -8 -17
-17z"/>
<path d="M2730 4380 c0 -5 14 -8 30 -6 45 5 49 16 7 16 -20 0 -37 -4 -37 -10z"/>
<path d="M4140 4379 c0 -5 5 -7 10 -4 6 3 10 8 10 11 0 2 -4 4 -10 4 -5 0 -10
-5 -10 -11z"/>
<path d="M1237 4373 c-4 -3 -7 -11 -7 -17 0 -6 5 -5 12 2 6 6 9 14 7 17 -3 3
-9 2 -12 -2z"/>
<path d="M1867 4369 c7 -7 15 -10 18 -7 3 3 -2 9 -12 12 -14 6 -15 5 -6 -5z"/>
<path d="M1671 4345 c-37 -17 -158 -20 -181 -6 -21 14 -31 3 -18 -19 7 -10 16
-16 21 -13 5 3 41 7 80 9 l72 4 -33 -20 c-18 -11 -36 -20 -40 -20 -4 0 -27
-14 -51 -30 -24 -16 -47 -27 -52 -24 -5 2 -28 -5 -51 -17 -24 -12 -55 -22 -71
-21 -15 0 -25 -4 -22 -9 4 -5 13 -9 21 -9 8 0 14 -5 14 -11 0 -6 13 -1 29 10
16 12 36 21 44 21 8 0 44 16 79 36 34 20 77 42 93 49 27 12 117 84 105 84 -3
0 -20 -6 -39 -14z"/>
<path d="M2130 4328 c-12 -22 -12 -22 6 -6 10 10 15 20 12 24 -4 3 -12 -5 -18
-18z"/>
<path d="M5298 4325 c-10 -13 -18 -27 -18 -30 0 -4 -11 -21 -25 -39 -26 -34
-32 -52 -15 -41 15 9 81 116 78 125 -2 5 -11 -2 -20 -15z"/>
<path d="M5430 4325 c-13 -14 -21 -27 -18 -30 2 -3 17 9 33 25 16 17 24 30 19
30 -6 0 -21 -11 -34 -25z"/>
<path d="M1207 4289 c-15 -51 -14 -79 5 -79 5 0 7 9 3 20 -3 11 -3 25 2 32 7
12 13 78 7 78 -1 0 -9 -23 -17 -51z"/>
<path d="M1784 4326 c-14 -15 -34 -52 -34 -63 0 -4 12 10 26 30 25 38 30 57 8
33z"/>
<path d="M948 4323 c7 -3 16 -2 19 1 4 3 -2 6 -13 5 -11 0 -14 -3 -6 -6z"/>
<path d="M2950 4320 c0 -5 5 -10 11 -10 5 0 7 5 4 10 -3 6 -8 10 -11 10 -2 0
-4 -4 -4 -10z"/>
<path d="M3216 4315 c-11 -8 -15 -15 -10 -15 6 0 19 7 30 15 10 8 15 14 9 14
-5 0 -19 -6 -29 -14z"/>
<path d="M4557 4323 c-4 -3 -7 -11 -7 -17 0 -6 5 -5 12 2 6 6 9 14 7 17 -3 3
-9 2 -12 -2z"/>
<path d="M3015 4310 c-19 -8 -18 -11 3 -14 5 0 16 -9 26 -18 19 -20 31 -24 21
-8 -3 6 1 10 9 10 9 0 16 5 16 10 0 6 -8 10 -18 10 -10 0 -22 4 -27 9 -6 5
-19 5 -30 1z"/>
<path d="M4032 4298 c-7 -13 -19 -34 -28 -48 -13 -18 -10 -17 10 5 33 38 49
65 38 65 -5 0 -14 -10 -20 -22z"/>
<path d="M5525 4309 c-4 -6 -5 -12 -2 -15 2 -3 7 2 10 11 7 17 1 20 -8 4z"/>
<path d="M3120 4295 c-25 -14 -25 -14 10 -8 40 6 65 23 35 23 -11 -1 -31 -7
-45 -15z"/>
<path d="M4926 4255 c-83 -99 -244 -183 -296 -155 -12 6 -26 9 -33 7 -25 -9
50 -29 89 -23 77 10 236 125 275 199 15 27 7 21 -35 -28z"/>
<path d="M6118 4268 c4 -18 7 -92 7 -165 0 -144 7 -165 15 -45 4 54 9 76 18
75 15 -4 15 -2 1 34 -6 15 -14 50 -18 77 -3 27 -12 51 -18 53 -10 4 -11 -4 -5
-29z"/>
<path d="M4395 4263 c-70 -58 -109 -83 -132 -83 -26 0 -30 18 -11 53 10 20 10
21 -5 8 -10 -7 -17 -20 -17 -27 0 -8 -5 -14 -12 -14 -6 0 -3 -9 8 -21 13 -14
25 -18 43 -14 37 9 171 108 161 118 -3 3 -18 -6 -35 -20z"/>
<path d="M3170 4270 c0 -5 4 -10 9 -10 6 0 13 5 16 10 3 6 -1 10 -9 10 -9 0
-16 -4 -16 -10z"/>
<path d="M5325 4228 l-30 -31 38 28 c20 15 37 29 37 31 0 11 -18 0 -45 -28z"/>
<path d="M1723 4238 c-23 -30 -24 -41 -2 -21 12 12 20 25 17 28 -3 3 -10 0
-15 -7z"/>
<path d="M2075 4239 c-4 -6 -5 -12 -2 -15 2 -3 7 2 10 11 7 17 1 20 -8 4z"/>
<path d="M2765 4230 c-3 -5 -2 -10 4 -10 5 0 13 5 16 10 3 6 2 10 -4 10 -5 0
-13 -4 -16 -10z"/>
<path d="M2956 4227 c3 -10 9 -15 12 -12 3 3 0 11 -7 18 -10 9 -11 8 -5 -6z"/>
<path d="M1148 4197 c-110 -95 -158 -121 -181 -98 -17 17 -31 13 -16 -5 27
-33 108 2 203 90 49 45 44 56 -6 13z"/>
<path d="M2397 4223 c-4 -3 -7 -11 -7 -17 0 -6 5 -5 12 2 6 6 9 14 7 17 -3 3
-9 2 -12 -2z"/>
<path d="M2980 4220 c0 -5 5 -10 11 -10 5 0 7 5 4 10 -3 6 -8 10 -11 10 -2 0
-4 -4 -4 -10z"/>
<path d="M5210 4192 c0 -5 -25 -36 -55 -69 -30 -34 -55 -65 -55 -71 0 -5 -9
-17 -20 -27 -11 -10 -20 -23 -20 -29 0 -6 15 5 32 24 17 19 49 55 72 80 23 24
40 48 38 53 -2 5 5 18 14 28 10 11 12 19 6 19 -7 0 -12 -4 -12 -8z"/>
<path d="M5555 4190 c-4 -7 -18 -10 -31 -7 -13 2 -32 -2 -41 -9 -16 -12 -11
-13 34 -9 30 3 54 1 58 -4 3 -6 18 -9 33 -7 15 2 19 1 10 -1 -32 -8 -19 -20
27 -25 98 -12 101 -55 10 -170 l-66 -83 61 65 c120 128 114 192 -20 231 -25 7
-50 16 -57 21 -7 5 -14 4 -18 -2z"/>
<path d="M4640 4182 c0 -6 -13 -13 -30 -17 -35 -8 -46 -21 -25 -29 17 -6 74
39 63 50 -5 4 -8 2 -8 -4z"/>
<path d="M1673 4168 c-20 -26 -26 -41 -15 -34 12 7 36 46 29 46 -3 0 -9 -6
-14 -12z"/>
<path d="M5225 4160 c-3 -6 1 -7 9 -4 18 7 21 14 7 14 -6 0 -13 -4 -16 -10z"/>
<path d="M941 4144 c0 -11 3 -14 6 -6 3 7 2 16 -1 19 -3 4 -6 -2 -5 -13z"/>
<path d="M1626 4104 c-4 -10 -1 -14 6 -12 15 5 23 28 10 28 -5 0 -13 -7 -16
-16z"/>
<path d="M3835 4099 c-16 -10 -25 -19 -19 -19 7 0 22 9 35 20 30 24 23 24 -16
-1z"/>
<path d="M2220 4038 c-41 -39 -68 -67 -59 -62 27 15 151 135 138 134 -2 -1
-38 -33 -79 -72z"/>
<path d="M3770 4086 c0 -2 7 -6 15 -10 8 -3 15 -1 15 4 0 6 -7 10 -15 10 -8 0
-15 -2 -15 -4z"/>
<path d="M1589 4037 c-9 -12 -39 -59 -67 -104 -60 -97 -106 -149 -184 -208
-90 -67 -150 -73 -124 -12 12 31 121 193 154 230 8 9 11 17 6 17 -11 0 -134
-165 -134 -179 0 -4 -9 -16 -19 -25 -24 -22 -35 -64 -21 -81 14 -17 -3 -29
-30 -20 -11 4 -20 2 -20 -4 0 -54 159 21 267 127 24 23 47 42 51 42 10 0 102
153 102 169 0 6 4 11 8 11 9 0 35 50 30 55 -2 2 -10 -7 -19 -18z"/>
<path d="M1267 4043 c-4 -3 -7 -11 -7 -17 0 -6 5 -5 12 2 6 6 9 14 7 17 -3 3
-9 2 -12 -2z"/>
<path d="M1233 3988 c-25 -28 -83 -125 -83 -138 0 -6 8 -10 18 -10 12 0 14 2
4 8 -9 6 0 28 38 85 52 80 57 92 23 55z"/>
<path d="M1389 3988 c-12 -23 -12 -23 10 -4 23 21 26 26 11 26 -5 0 -15 -10
-21 -22z"/>
<path d="M5026 3969 c-11 -11 -15 -19 -9 -19 12 0 38 28 32 34 -2 2 -13 -5
-23 -15z"/>
<path d="M2080 3920 l-35 -31 37 23 c21 13 38 26 38 31 0 11 -3 9 -40 -23z"/>
<path d="M5676 3935 c-3 -8 -1 -15 3 -15 5 0 11 7 15 15 3 8 1 15 -3 15 -5 0
-11 -7 -15 -15z"/>
<path d="M4792 3919 c-19 -30 -8 -34 12 -4 9 14 13 25 9 25 -5 0 -14 -9 -21
-21z"/>
<path d="M4969 3917 c-19 -13 -43 -26 -53 -30 -10 -4 -16 -10 -13 -13 7 -7 80
31 96 50 18 22 10 20 -30 -7z"/>
<path d="M6101 3922 c-13 -25 -14 -32 -2 -32 9 0 23 41 16 48 -2 2 -8 -5 -14
-16z"/>
<path d="M1836 3914 c-9 -24 -2 -26 12 -4 7 11 8 20 3 20 -5 0 -12 -7 -15 -16z"/>
<path d="M1751 3816 c-67 -79 -219 -229 -249 -245 -18 -10 -23 -9 -28 3 -3 8
0 25 6 38 11 22 10 22 -4 4 -20 -25 -21 -65 -1 -72 20 -8 46 10 133 95 41 39
76 71 78 71 2 0 4 -10 4 -22 0 -19 2 -20 10 -8 5 8 7 22 4 32 -3 10 17 41 55
85 34 37 61 71 61 76 0 18 -19 2 -69 -57z"/>
<path d="M1920 3830 c-41 -34 -32 -39 16 -9 19 11 32 25 28 30 -7 12 -3 13
-44 -21z"/>
<path d="M6062 3835 c-7 -15 -11 -30 -8 -32 7 -7 28 36 24 49 -2 6 -9 -2 -16
-17z"/>
<path d="M2220 3815 c-8 -9 -8 -15 -2 -15 12 0 26 19 19 26 -2 2 -10 -2 -17
-11z"/>
<path d="M2115 3770 c-3 -11 -10 -20 -15 -20 -4 0 -10 -7 -13 -14 -4 -10 -1
-13 9 -9 18 6 49 63 35 63 -5 0 -13 -9 -16 -20z"/>
<path d="M1865 3770 c-3 -6 1 -7 9 -4 18 7 21 14 7 14 -6 0 -13 -4 -16 -10z"/>
<path d="M5575 3754 c-9 -15 -12 -23 -6 -20 11 7 35 46 28 46 -3 0 -12 -12
-22 -26z"/>
<path d="M5996 3731 c-15 -21 -39 -50 -54 -64 -15 -13 -47 -50 -71 -81 -24
-31 -69 -77 -98 -102 -56 -48 -64 -64 -22 -42 32 17 209 204 233 247 6 11 21
33 34 50 13 17 19 31 14 31 -5 0 -21 -17 -36 -39z"/>
<path d="M5436 3734 c-40 -35 -28 -38 14 -3 19 16 30 29 25 29 -6 0 -23 -12
-39 -26z"/>
<path d="M1830 3735 c-11 -13 -10 -14 4 -9 9 3 16 10 16 15 0 13 -6 11 -20 -6z"/>
<path d="M1468 3733 c6 -2 18 -2 25 0 6 3 1 5 -13 5 -14 0 -19 -2 -12 -5z"/>
<path d="M1750 3672 c0 -8 6 -12 15 -8 9 3 15 0 15 -9 0 -7 5 -17 10 -20 6 -4
10 7 10 24 0 27 -3 30 -25 29 -14 -1 -25 -9 -25 -16z"/>
<path d="M2035 3680 c-3 -6 1 -7 9 -4 18 7 21 14 7 14 -6 0 -13 -4 -16 -10z"/>
<path d="M2088 3683 c6 -2 18 -2 25 0 6 3 1 5 -13 5 -14 0 -19 -2 -12 -5z"/>
<path d="M5520 3675 c-8 -9 -8 -15 -2 -15 12 0 26 19 19 26 -2 2 -10 -2 -17
-11z"/>
<path d="M1915 3669 c-4 -6 -5 -12 -2 -15 2 -3 7 2 10 11 7 17 1 20 -8 4z"/>
<path d="M1830 3659 c0 -5 5 -7 10 -4 6 3 10 8 10 11 0 2 -4 4 -10 4 -5 0 -10
-5 -10 -11z"/>
<path d="M2165 3659 c-11 -17 1 -21 15 -4 8 9 8 15 2 15 -6 0 -14 -5 -17 -11z"/>
<path d="M1718 3653 c7 -3 16 -2 19 1 4 3 -2 6 -13 5 -11 0 -14 -3 -6 -6z"/>
<path d="M1880 3650 c0 -5 5 -10 10 -10 6 0 10 5 10 10 0 6 -4 10 -10 10 -5 0
-10 -4 -10 -10z"/>
<path d="M1850 3636 c0 -9 5 -16 10 -16 6 0 10 4 10 9 0 6 -4 13 -10 16 -5 3
-10 -1 -10 -9z"/>
<path d="M5475 3630 c-27 -30 -12 -34 15 -5 13 14 19 25 13 25 -5 0 -18 -9
-28 -20z"/>
<path d="M1803 3614 c-8 -20 8 -68 22 -66 17 2 18 42 2 42 -10 0 -13 7 -10 20
6 24 -5 27 -14 4z"/>
<path d="M1865 3603 c-6 -1 -9 -32 -8 -70 2 -58 1 -64 -9 -43 -6 14 -10 29 -9
33 1 5 -3 6 -7 3 -13 -8 -2 -59 15 -73 9 -7 11 -13 4 -18 -14 -8 -14 -27 0
-62 14 -34 16 -45 23 -153 7 -116 16 -161 28 -154 6 4 8 23 5 43 -6 33 -5 34
8 17 21 -27 19 -2 -2 37 -13 23 -19 58 -20 122 -1 50 -5 118 -8 153 -6 53 -5
62 9 62 20 0 21 14 2 30 -8 6 -13 17 -10 24 7 17 -9 54 -21 49z"/>
<path d="M5404 3546 c-25 -26 -44 -50 -41 -52 3 -3 26 16 51 42 26 26 44 49
41 52 -2 3 -25 -16 -51 -42z"/>
<path d="M2122 3543 c-33 -88 -52 -146 -52 -162 0 -10 -7 -24 -16 -32 -9 -7
-14 -22 -11 -36 2 -13 -1 -23 -7 -24 -6 0 -1 -4 12 -9 12 -5 22 -16 22 -25 0
-18 -12 -19 -28 -3 -6 6 -13 10 -15 7 -2 -2 23 -31 55 -64 32 -33 58 -55 58
-49 0 5 -14 24 -30 41 -20 20 -28 37 -24 47 10 27 61 3 142 -66 31 -26 80 -40
67 -18 -4 6 -10 8 -15 5 -15 -9 -22 15 -10 30 10 13 8 15 -16 15 -23 1 -35 10
-59 46 -16 25 -34 52 -40 59 -15 22 -1 27 82 26 55 0 117 -10 197 -31 131 -34
129 -33 122 -21 -13 20 -245 71 -324 71 -38 0 -51 3 -46 12 5 8 2 9 -12 4 -10
-4 -34 -10 -52 -13 -32 -6 -33 -5 -26 23 4 16 10 34 15 40 4 5 6 19 3 31 -3
11 2 42 11 68 17 51 15 74 -3 28z m-28 -246 c-3 -9 -10 -17 -14 -17 -12 0 -23
38 -14 51 10 17 36 -14 28 -34z m40 -23 c3 -8 2 -12 -4 -9 -6 3 -10 10 -10 16
0 14 7 11 14 -7z"/>
<path d="M5940 3489 c0 -5 5 -7 10 -4 6 3 10 8 10 11 0 2 -4 4 -10 4 -5 0 -10
-5 -10 -11z"/>
<path d="M1907 3483 c-4 -6 0 -30 7 -54 l14 -44 0 35 c1 42 -12 78 -21 63z"/>
<path d="M5910 3447 c-21 -32 -32 -59 -20 -52 12 7 43 65 38 70 -2 2 -10 -6
-18 -18z"/>
<path d="M5690 3419 c0 -5 5 -7 10 -4 6 3 10 8 10 11 0 2 -4 4 -10 4 -5 0 -10
-5 -10 -11z"/>
<path d="M5654 3405 c-18 -14 -18 -14 4 -8 12 3 22 9 22 14 0 12 -3 11 -26 -6z"/>
<path d="M5550 3350 c-30 -16 -50 -29 -44 -30 12 0 104 49 104 56 0 6 1 6 -60
-26z"/>
<path d="M5852 3347 c-15 -18 -33 -67 -24 -67 8 1 43 72 38 77 -2 2 -8 -2 -14
-10z"/>
<path d="M1935 3310 c3 -5 8 -10 11 -10 2 0 4 5 4 10 0 6 -5 10 -11 10 -5 0
-7 -4 -4 -10z"/>
<path d="M5440 3295 c-14 -8 -37 -14 -52 -15 -16 0 -28 -5 -28 -11 0 -7 12 -8
33 -4 33 8 87 32 87 40 0 8 -14 5 -40 -10z"/>
<path d="M2620 3269 c-13 -6 -27 -14 -30 -18 -3 -4 -18 -13 -35 -19 l-30 -10
33 -1 c17 -1 32 3 32 8 0 5 11 12 24 15 13 3 26 13 30 21 3 8 4 15 3 14 -1 0
-13 -5 -27 -10z"/>
<path d="M5806 3262 c-28 -45 -82 -306 -62 -299 6 2 16 35 22 73 15 91 31 158
49 200 8 19 10 34 5 34 -5 0 -11 -4 -14 -8z"/>
<path d="M5895 3250 c-3 -5 -1 -10 4 -10 6 0 11 5 11 10 0 6 -2 10 -4 10 -3 0
-8 -4 -11 -10z"/>
<path d="M1946 3225 c10 -43 14 -47 30 -31 16 16 19 30 5 21 -5 -3 -17 5 -26
17 -16 23 -16 23 -9 -7z"/>
<path d="M2618 3203 c7 -3 16 -2 19 1 4 3 -2 6 -13 5 -11 0 -14 -3 -6 -6z"/>
<path d="M1972 3137 c2 -26 12 -35 22 -19 2 4 -2 16 -10 27 -13 18 -14 18 -12
-8z"/>
<path d="M1980 3088 c1 -22 40 -123 49 -126 11 -4 6 22 -9 43 -4 6 -10 27 -14
48 -4 20 -11 37 -16 37 -6 0 -10 -1 -10 -2z"/>
<path d="M1950 3051 c0 -6 4 -13 10 -16 6 -3 7 1 4 9 -7 18 -14 21 -14 7z"/>
<path d="M5793 3015 c-3 -9 -3 -18 -1 -21 3 -3 8 4 11 16 6 23 -1 27 -10 5z"/>
<path d="M5630 3004 c0 -10 5 -26 10 -34 8 -11 9 -7 4 15 -8 37 -14 45 -14 19z"/>
<path d="M1960 2964 c0 -3 5 -15 11 -26 10 -18 9 -20 -5 -15 -23 9 -20 -15 3
-30 11 -7 30 -34 43 -60 33 -68 64 -113 73 -105 3 4 6 3 5 -3 -5 -23 1 -42 19
-62 11 -12 17 -24 14 -27 -4 -3 -1 -6 5 -6 16 0 24 18 10 23 -7 2 -9 8 -5 13
5 5 21 -7 38 -26 15 -19 29 -29 29 -22 0 15 -56 94 -76 105 -8 4 -14 14 -14
22 0 8 -18 33 -40 57 -22 24 -40 46 -40 50 0 4 -6 13 -13 20 -8 7 -17 29 -20
48 -7 32 -6 33 7 15 14 -18 15 -18 16 -2 0 10 -11 22 -26 27 -29 12 -34 12
-34 4z"/>
<path d="M5753 2936 c3 -7 0 -22 -8 -33 -19 -27 -23 -75 -6 -81 9 -3 12 0 8
10 -3 9 -2 19 3 24 13 16 21 94 9 94 -6 0 -9 -6 -6 -14z"/>
<path d="M2040 2931 c0 -6 4 -13 10 -16 6 -3 7 1 4 9 -7 18 -14 21 -14 7z"/>
<path d="M2061 2884 c0 -11 3 -14 6 -6 3 7 2 16 -1 19 -3 4 -6 -2 -5 -13z"/>
<path d="M2510 2883 c-8 -3 -26 -10 -39 -15 -17 -6 -21 -12 -13 -20 7 -7 17
-6 33 6 17 11 26 13 36 4 10 -8 13 -7 13 5 0 8 6 18 13 20 17 7 -24 7 -43 0z"/>
<path d="M2076 2837 c3 -10 9 -15 12 -12 3 3 0 11 -7 18 -10 9 -11 8 -5 -6z"/>
<path d="M3145 2813 c-22 -8 -47 -21 -55 -29 -11 -11 2 -9 48 8 34 12 62 26
62 30 0 10 -5 9 -55 -9z"/>
<path d="M2990 2805 c-103 -21 -203 -45 -209 -50 -14 -15 17 -11 134 16 72 17
144 34 160 39 27 7 28 8 5 8 -14 0 -54 -6 -90 -13z"/>
<path d="M5668 2775 c2 -14 6 -25 8 -25 2 0 4 11 4 25 0 14 -4 25 -9 25 -4 0
-6 -11 -3 -25z"/>
<path d="M2745 2731 c-15 -13 -75 -22 -75 -11 0 6 -7 10 -15 10 -8 0 -15 -9
-15 -21 0 -11 -4 -18 -9 -14 -6 3 -27 -4 -48 -16 -24 -14 -61 -23 -103 -26
-36 -2 -80 -6 -99 -9 l-33 -5 22 -16 c18 -13 27 -14 41 -5 10 7 25 9 34 6 8
-3 15 -1 15 5 0 6 19 11 45 11 25 0 45 -4 45 -10 0 -5 7 -10 16 -10 11 0 14 5
10 16 -4 12 -2 15 9 11 8 -4 21 0 29 8 20 20 29 19 22 -2 -5 -13 -2 -12 11 4
10 12 34 28 53 36 40 17 80 46 65 47 -6 0 -15 -4 -20 -9z"/>
<path d="M5661 2644 c0 -11 3 -14 6 -6 3 7 2 16 -1 19 -3 4 -6 -2 -5 -13z"/>
<path d="M2147 2633 c-11 -11 -8 -33 4 -30 6 1 14 -4 17 -12 3 -8 0 -11 -7 -7
-28 18 3 -37 42 -72 9 -9 17 -24 17 -34 0 -10 5 -18 10 -18 6 0 10 -9 10 -19
0 -10 13 -32 28 -49 15 -16 26 -34 24 -40 -2 -8 24 -55 55 -97 8 -11 35 -57
56 -98 20 -37 98 -139 104 -134 2 3 -18 37 -46 75 -28 39 -64 97 -80 129 -17
32 -40 73 -53 92 -14 22 -17 32 -8 29 8 -2 22 -18 32 -34 9 -16 23 -39 30 -50
7 -12 43 -59 81 -105 37 -46 67 -89 67 -96 0 -7 5 -13 10 -13 6 0 10 -5 10
-11 0 -6 7 -17 16 -26 8 -9 13 -22 10 -30 -6 -14 20 -31 30 -20 13 13 -102
185 -185 277 -25 27 -39 52 -37 63 2 10 -9 30 -27 48 -26 27 -73 99 -68 107 1
1 -15 35 -36 75 -33 65 -37 69 -43 47 -6 -24 -7 -23 -28 18 -24 45 -25 46 -35
35z m96 -123 c10 -16 15 -30 11 -30 -3 0 -1 -6 5 -14 7 -8 8 -17 3 -20 -5 -3
-15 13 -22 34 -7 22 -17 40 -22 40 -4 0 -8 5 -8 10 0 19 16 10 33 -20z"/>
<path d="M5660 2606 c0 -9 5 -16 10 -16 6 0 10 4 10 9 0 6 -4 13 -10 16 -5 3
-10 -1 -10 -9z"/>
<path d="M2930 2579 c0 -5 5 -7 10 -4 6 3 10 8 10 11 0 2 -4 4 -10 4 -5 0 -10
-5 -10 -11z"/>
<path d="M5671 2554 c0 -11 3 -14 6 -6 3 7 2 16 -1 19 -3 4 -6 -2 -5 -13z"/>
<path d="M2514 2515 c11 -8 27 -15 35 -15 9 0 3 7 -13 15 -36 19 -47 19 -22 0z"/>
<path d="M2881 2475 c-12 -26 -21 -52 -21 -57 0 -5 -7 -16 -15 -24 -17 -18
-20 -37 -4 -32 11 4 72 148 65 155 -2 3 -14 -17 -25 -42z"/>
<path d="M2715 2495 c-25 -11 -27 -14 -9 -14 12 -1 27 6 34 14 15 18 14 18
-25 0z"/>
<path d="M2618 2493 c7 -3 16 -2 19 1 4 3 -2 6 -13 5 -11 0 -14 -3 -6 -6z"/>
<path d="M2573 2455 c-20 -22 -16 -24 22 -13 19 6 32 15 29 20 -8 13 -38 9
-51 -7z"/>
<path d="M4549 2393 c-13 -15 -12 -15 11 -3 34 17 36 20 18 20 -9 0 -22 -7
-29 -17z"/>
<path d="M4220 2390 c-8 -5 -12 -12 -9 -15 4 -3 12 1 19 10 14 17 11 19 -10 5z"/>
<path d="M5672 2380 c0 -14 2 -19 5 -12 2 6 2 18 0 25 -3 6 -5 1 -5 -13z"/>
<path d="M4484 2363 c-16 -16 -35 -39 -43 -53 -13 -24 -13 -24 4 -10 25 21 85
81 85 86 0 11 -19 1 -46 -23z"/>
<path d="M4170 2346 c-6 -8 -27 -20 -46 -26 -19 -6 -34 -16 -34 -21 0 -5 2 -9
4 -9 9 0 96 52 101 61 10 15 -11 10 -25 -5z"/>
<path d="M4246 2335 c-11 -8 -17 -17 -14 -20 2 -3 13 4 23 15 21 23 18 25 -9
5z"/>
<path d="M6391 2284 c0 -11 3 -14 6 -6 3 7 2 16 -1 19 -3 4 -6 -2 -5 -13z"/>
<path d="M4049 2273 c-13 -15 -12 -15 9 -4 23 12 28 21 13 21 -5 0 -15 -7 -22
-17z"/>
<path d="M5780 2256 c0 -8 4 -17 9 -20 5 -4 7 3 4 14 -6 23 -13 26 -13 6z"/>
<path d="M6393 2205 c0 -33 2 -45 4 -27 2 18 2 45 0 60 -2 15 -4 0 -4 -33z"/>
<path d="M3980 2220 c-45 -39 -34 -39 15 0 21 17 34 30 29 30 -5 -1 -25 -14
-44 -30z"/>
<path d="M4064 2235 c-10 -8 -14 -14 -9 -14 6 0 19 6 29 14 11 8 15 15 10 15
-6 0 -19 -7 -30 -15z"/>
<path d="M4335 2240 c-8 -13 5 -13 25 0 13 8 13 10 -2 10 -9 0 -20 -4 -23 -10z"/>
<path d="M4050 2185 c-30 -19 -60 -33 -66 -31 -6 2 -27 -8 -45 -23 -19 -15
-72 -54 -119 -86 -47 -33 -86 -63 -88 -67 -2 -4 -12 -8 -23 -8 -10 0 -19 -4
-19 -9 0 -5 -9 -12 -19 -16 -10 -3 -21 -15 -24 -25 -6 -22 -33 -28 -34 -7 0 6
-4 19 -7 28 -5 12 3 23 26 37 18 12 29 22 25 22 -18 0 -69 -33 -124 -81 -32
-28 -82 -67 -110 -87 -29 -19 -53 -39 -53 -43 0 -25 -187 -99 -250 -99 -16 0
-32 -4 -35 -10 -3 -5 4 -10 17 -10 13 0 32 -1 43 -1 11 -1 58 13 105 30 47 17
92 31 100 32 8 0 33 9 55 20 37 18 23 21 -17 4 -10 -4 -18 -3 -18 1 1 13 82
71 105 76 12 2 20 11 20 22 0 11 6 21 13 23 6 3 12 0 12 -6 0 -6 5 -11 10 -11
6 0 10 8 10 18 0 19 29 52 44 52 5 0 1 -11 -8 -25 -22 -33 -20 -42 4 -20 28
25 25 10 -6 -30 -17 -23 -31 -32 -41 -28 -10 4 -14 2 -10 -4 8 -13 -41 -55
-54 -47 -5 3 -6 -2 -3 -10 4 -10 -3 -20 -20 -27 -32 -15 -34 -34 -3 -25 12 3
25 6 30 6 4 0 7 6 7 14 0 14 41 46 59 46 9 0 24 -42 25 -70 1 -8 16 -39 35
-69 20 -31 35 -68 37 -89 3 -48 2 -46 18 -33 11 9 18 6 34 -17 12 -15 24 -40
27 -55 4 -15 11 -25 15 -22 9 5 -41 109 -85 180 -14 22 -37 65 -51 95 -13 30
-30 64 -36 75 -9 16 -7 22 13 35 56 36 98 81 94 101 -3 15 0 19 10 16 7 -3 19
1 27 10 20 25 263 182 348 226 86 44 103 57 74 57 -11 0 -44 -16 -74 -35z"/>
<path d="M3895 2160 c-3 -5 -2 -10 4 -10 5 0 13 5 16 10 3 6 2 10 -4 10 -5 0
-13 -4 -16 -10z"/>
<path d="M5922 2130 c0 -14 2 -19 5 -12 2 6 2 18 0 25 -3 6 -5 1 -5 -13z"/>
<path d="M6395 1065 c0 -588 1 -828 2 -532 2 296 2 778 0 1070 -1 293 -2 51
-2 -538z"/>
<path d="M3809 2103 c-13 -17 -13 -17 6 -3 11 8 22 16 24 17 2 2 0 3 -6 3 -6
0 -17 -8 -24 -17z"/>
<path d="M5926 2083 c-4 -9 -3 -20 1 -24 4 -4 9 3 9 17 2 28 -1 31 -10 7z"/>
<path d="M3760 2070 c-8 -5 -12 -11 -10 -14 3 -2 14 2 24 10 22 15 10 19 -14
4z"/>
<path d="M2622 1986 c-1 -13 5 -29 13 -36 10 -8 15 -9 15 -2 0 6 -4 14 -10 17
-5 3 -10 11 -10 17 0 20 28 -12 35 -40 4 -15 10 -29 14 -32 4 -3 11 -18 15
-33 8 -34 -12 -34 -29 0 -14 27 -37 55 -41 50 -7 -7 19 -72 44 -109 13 -21 22
-44 19 -52 -4 -10 8 -26 32 -45 41 -33 58 -32 37 3 -8 11 -16 36 -20 55 -5 29
-4 32 9 21 8 -7 15 -19 15 -27 0 -17 32 -62 76 -107 41 -42 168 -108 197 -103
19 3 19 4 -8 11 -16 4 -41 12 -55 19 -23 10 -18 12 48 20 90 12 98 32 9 23
-52 -5 -72 -3 -110 14 -47 21 -69 40 -45 40 7 0 29 -8 48 -19 75 -39 105 -35
58 9 -14 13 -35 20 -59 20 -21 0 -41 5 -44 10 -3 6 -13 10 -21 10 -9 0 -12 -5
-8 -11 4 -7 1 -10 -7 -7 -8 3 -13 11 -11 17 1 7 -5 19 -13 27 -8 9 -13 19 -11
23 3 4 -8 15 -24 25 -26 15 -89 121 -90 151 -1 13 -46 65 -57 65 -5 0 -10 -11
-11 -24z m95 -228 c-3 -8 -6 -5 -6 6 -1 11 2 17 5 13 3 -3 4 -12 1 -19z"/>
<path d="M5960 1957 c0 -14 5 -29 10 -32 7 -4 8 3 4 22 -9 38 -14 42 -14 10z"/>
<path d="M3720 1940 c-33 -28 -17 -37 19 -10 17 12 31 23 31 26 0 11 -29 2
-50 -16z"/>
<path d="M5976 1893 c4 -10 8 -35 8 -55 0 -20 4 -34 8 -32 8 5 12 -10 9 -33
-1 -7 5 -25 13 -40 12 -22 15 -24 16 -9 0 31 -43 186 -53 186 -5 0 -6 -8 -1
-17z"/>
<path d="M3576 1791 c-3 -5 1 -11 9 -15 8 -3 15 -1 15 4 0 13 -18 22 -24 11z"/>
<path d="M4042 1749 c-7 -10 -8 -19 -3 -19 13 0 33 28 23 33 -4 3 -13 -3 -20
-14z"/>
<path d="M5970 1745 c0 -3 14 -26 30 -52 38 -60 41 -120 3 -82 -7 7 -14 2 -21
-20 -7 -18 -7 -33 -2 -36 13 -8 -51 -71 -81 -80 -26 -8 -68 -52 -69 -73 0 -7
-10 -33 -22 -59 -30 -63 -84 -118 -207 -210 -3 -2 0 -8 6 -14 8 -8 16 -8 30 1
17 11 17 11 -2 6 -15 -5 -12 0 8 15 16 12 45 37 64 55 20 19 41 34 47 34 18 1
63 71 81 128 18 55 54 93 110 116 41 17 101 83 97 105 -3 12 0 11 12 -4 8 -11
16 -29 17 -40 0 -11 5 -2 10 19 8 32 7 42 -6 48 -8 5 -15 20 -15 33 0 14 -17
40 -45 68 -25 25 -45 44 -45 42z m50 -175 c0 -5 -4 -10 -10 -10 -5 0 -10 5
-10 10 0 6 5 10 10 10 6 0 10 -4 10 -10z"/>
<path d="M3500 1730 c-8 -5 -10 -10 -5 -10 6 0 17 5 25 10 8 5 11 10 5 10 -5
0 -17 -5 -25 -10z"/>
<path d="M3996 1676 c-30 -51 -35 -70 -8 -35 26 37 44 70 39 75 -3 3 -16 -15
-31 -40z"/>
<path d="M3380 1695 c-14 -8 -20 -14 -14 -15 5 0 19 7 30 15 24 18 16 19 -16
0z"/>
<path d="M3712 1645 c0 -16 2 -22 5 -12 2 9 2 23 0 30 -3 6 -5 -1 -5 -18z"/>
<path d="M2770 1649 c0 -9 7 -22 15 -29 19 -16 19 0 0 26 -12 16 -14 16 -15 3z"/>
<path d="M3115 1650 c-3 -5 -1 -10 4 -10 6 0 11 5 11 10 0 6 -2 10 -4 10 -3 0
-8 -4 -11 -10z"/>
<path d="M3210 1633 c-14 -3 -29 -9 -35 -15 -13 -12 46 1 60 13 5 5 7 8 5 8
-3 -1 -16 -4 -30 -6z"/>
<path d="M3105 1620 c-3 -5 3 -10 15 -10 12 0 18 5 15 10 -3 6 -10 10 -15 10
-5 0 -12 -4 -15 -10z"/>
<path d="M2797 1593 c-4 -3 -7 -11 -7 -17 0 -6 5 -5 12 2 6 6 9 14 7 17 -3 3
-9 2 -12 -2z"/>
<path d="M3714 1590 c2 -8 12 -46 21 -85 9 -38 19 -78 22 -89 4 -13 2 -16 -8
-11 -9 6 -10 3 -6 -11 43 -134 58 -194 53 -221 -4 -25 -1 -33 11 -33 12 0 14
8 9 43 -3 23 -7 49 -9 57 -2 8 -9 43 -16 78 -8 34 -17 62 -22 62 -5 0 -6 6 -3
14 6 16 -34 187 -48 201 -6 7 -7 5 -4 -5z"/>
<path d="M3073 1553 c9 -2 23 -2 30 0 6 3 -1 5 -18 5 -16 0 -22 -2 -12 -5z"/>
<path d="M2995 1520 c-3 -5 -1 -10 4 -10 6 0 11 5 11 10 0 6 -2 10 -4 10 -3 0
-8 -4 -11 -10z"/>
<path d="M3661 1515 c1 -19 18 -51 18 -35 0 8 -4 22 -9 30 -5 8 -9 11 -9 5z"/>
<path d="M3664 1445 c4 -11 10 -36 13 -55 4 -18 12 -45 20 -60 13 -24 14 -23
7 15 -4 22 -11 48 -16 58 -5 9 -7 21 -5 25 3 4 -2 14 -11 22 -14 13 -15 12 -8
-5z"/>
<path d="M6090 1446 c0 -8 5 -18 10 -21 6 -3 10 3 10 14 0 12 -4 21 -10 21 -5
0 -10 -6 -10 -14z"/>
<path d="M3714 1260 c15 -62 35 -169 40 -210 4 -35 1 -51 -14 -70 l-19 -25 6
25 c8 35 -10 14 -27 -30 -7 -19 -32 -61 -56 -93 -24 -31 -44 -62 -44 -67 0 -6
-5 -10 -10 -10 -14 0 -39 -60 -33 -76 5 -14 43 18 43 37 0 15 64 111 86 130 9
7 27 31 40 51 28 43 43 49 37 14 -3 -13 1 -34 7 -46 11 -21 13 -21 22 -7 5 10
7 37 4 62 -3 26 -2 45 4 45 18 0 11 18 -9 25 -14 4 -20 18 -24 48 -7 61 -37
189 -49 207 -7 11 -8 9 -4 -10z"/>
<path d="M5805 1240 c-22 -22 -45 -40 -51 -40 -5 0 -23 -13 -39 -30 -16 -16
-25 -30 -20 -30 9 0 137 103 155 125 25 31 -7 12 -45 -25z"/>
<path d="M5665 1120 c-3 -5 -2 -10 4 -10 5 0 13 5 16 10 3 6 2 10 -4 10 -5 0
-13 -4 -16 -10z"/>
<path d="M5570 1104 c-8 -8 -56 -47 -108 -86 -52 -40 -109 -85 -126 -102 -17
-17 -44 -41 -60 -54 -16 -12 -27 -25 -24 -27 3 -3 49 30 104 73 54 43 122 94
151 114 84 58 105 77 98 88 -9 14 -20 13 -35 -6z"/>
<path d="M5541 1018 c-17 -28 -8 -32 19 -10 18 15 20 20 8 24 -8 4 -20 -2 -27
-14z"/>
<path d="M5246 885 c-11 -8 -15 -15 -10 -15 6 0 19 7 30 15 10 8 15 14 9 14
-5 0 -19 -6 -29 -14z"/>
<path d="M3755 810 c-3 -5 -1 -10 4 -10 6 0 11 5 11 10 0 6 -2 10 -4 10 -3 0
-8 -4 -11 -10z"/>
<path d="M5190 797 c-19 -13 -53 -36 -75 -50 -22 -15 -51 -36 -65 -48 l-25
-20 25 12 c30 15 180 119 180 125 0 7 -4 5 -40 -19z"/>
<path d="M5040 770 c-9 -6 -10 -10 -3 -10 6 0 15 5 18 10 8 12 4 12 -15 0z"/>
<path d="M4930 715 c-14 -8 -20 -14 -14 -15 5 0 19 7 30 15 24 18 16 19 -16 0z"/>
<path d="M5174 698 l-19 -23 25 20 c14 11 27 21 29 22 2 2 0 3 -6 3 -5 0 -18
-10 -29 -22z"/>
<path d="M3566 673 c-12 -13 -5 -45 20 -93 14 -28 30 -50 35 -50 5 0 8 -10 6
-22 -1 -15 3 -23 13 -23 8 0 17 -3 20 -6 11 -13 123 -60 176 -74 90 -23 88
-17 -4 14 -130 45 -218 115 -227 180 -2 17 -6 35 -10 41 -3 5 -1 10 4 10 6 0
11 6 11 13 0 13 -33 20 -44 10z"/>
<path d="M5100 653 c-14 -7 -18 -13 -10 -13 17 0 47 17 40 23 -3 2 -16 -2 -30
-10z"/>
<path d="M4933 629 c-33 -21 -40 -29 -25 -29 8 1 70 50 62 50 -3 0 -20 -10
-37 -21z"/>
<path d="M4854 585 c-10 -8 -14 -14 -9 -14 6 0 19 6 29 14 11 8 15 15 10 15
-6 0 -19 -7 -30 -15z"/>
<path d="M4885 560 c-3 -6 1 -7 9 -4 18 7 21 14 7 14 -6 0 -13 -4 -16 -10z"/>
<path d="M4780 550 c-8 -5 -10 -10 -5 -10 6 0 17 5 25 10 8 5 11 10 5 10 -5 0
-17 -5 -25 -10z"/>
<path d="M4750 520 c8 -5 20 -10 25 -10 6 0 3 5 -5 10 -8 5 -19 10 -25 10 -5
0 -3 -5 5 -10z"/>
<path d="M4655 490 c-33 -16 -70 -29 -82 -29 -12 -1 -24 -5 -28 -10 -10 -18
11 -20 41 -5 16 9 57 25 91 36 35 11 60 25 57 29 -7 12 -11 11 -79 -21z"/>
<path d="M3690 430 c0 -5 5 -10 11 -10 5 0 7 5 4 10 -3 6 -8 10 -11 10 -2 0
-4 -4 -4 -10z"/>
<path d="M4140 340 c-24 -8 -24 -8 5 -9 17 0 37 4 45 9 12 8 11 10 -5 9 -11
-1 -31 -5 -45 -9z"/>
<path d="M3885 320 c30 -8 132 -13 124 -6 -2 2 -38 6 -79 9 -46 3 -63 2 -45
-3z"/>
<path d="M4025 320 c3 -5 8 -10 11 -10 2 0 4 5 4 10 0 6 -5 10 -11 10 -5 0 -7
-4 -4 -10z"/>
<path d="M4073 323 c9 -2 23 -2 30 0 6 3 -1 5 -18 5 -16 0 -22 -2 -12 -5z"/>
</g>
</svg>
